<svg xmlns="http://www.w3.org/2000/svg" xmlns:xlink="http://www.w3.org/1999/xlink" width="1280" height="480" overflow="hidden"><defs><clipPath id="A"><path d="M0 0h1280v480H0z"/></clipPath><clipPath id="B"><path d="M143 118h140v140H143z"/></clipPath><clipPath id="C"><path d="M143 118h140v140H143z"/></clipPath><clipPath id="D"><path d="M143 118h140v140H143z"/></clipPath><linearGradient x1="143" y1="188" x2="283" y2="188" gradientUnits="userSpaceOnUse" spreadMethod="pad" id="E"><stop offset="0" stop-color="#00f2fe"/><stop offset=".021" stop-color="#03effe"/><stop offset=".293" stop-color="#24d2fe"/><stop offset=".554" stop-color="#3cbdfe"/><stop offset=".796" stop-color="#4ab0fe"/><stop offset="1" stop-color="#4facfe"/></linearGradient><path id="F" d="M530.946 258.316q-10.808 0-19.3-3.667-8.492-3.667-14.282-10.422-5.79-6.948-8.878-16.598-3.088-9.843-3.088-21.809 0-11.966 3.088-21.616 3.088-9.843 8.878-16.598 5.79-6.948 14.282-10.615 8.492-3.667 19.3-3.667 15.054 0 24.704 6.755 9.65 6.755 14.089 17.949l-17.37 8.106q-2.123-6.948-7.527-11.001-5.211-4.246-13.896-4.246-11.58 0-17.563 7.334-5.79 7.141-5.79 18.721v17.949q0 11.58 5.79 18.914 5.983 7.141 17.563 7.141 9.264 0 14.668-4.439 5.597-4.632 8.878-12.159l16.019 8.492q-5.018 12.352-15.054 18.914-10.036 6.562-24.511 6.562z"/><path id="G" d="M204.466 353v-32.768h3.648v5.888h.256q.96-2.304 3.264-4.096 2.304-1.792 6.528-1.792h2.176v3.584h-2.88q-4.096 0-6.72 1.792-2.624 1.792-2.624 4.992V353z"/><path id="H" d="M247.794 320.232h3.712l-15.168 41.984q-.768 2.048-1.856 2.816-1.088.768-3.584.768h-3.712v-3.2h5.504l3.136-8.64-12.16-33.728h3.84l10.048 28.864h.256z"/><path id="I" d="M283.25 353.768q-4.288 0-7.36-1.6-3.008-1.6-5.248-4.672l2.688-2.112q2.048 2.688 4.48 3.968 2.432 1.28 5.696 1.28 3.776 0 5.824-1.6 2.048-1.6 2.048-4.608 0-2.624-1.6-4.096-1.536-1.536-5.12-2.048l-2.688-.448q-2.24-.32-4.096-.96-1.856-.64-3.2-1.728-1.28-1.088-2.048-2.624-.704-1.6-.704-3.84 0-2.304.832-4.032.896-1.728 2.368-2.88 1.472-1.152 3.52-1.728 2.048-.576 4.416-.576 4.096 0 6.72 1.408 2.624 1.408 4.48 3.648l-2.432 2.24q-1.28-1.536-3.456-2.816-2.112-1.344-5.504-1.344-3.52 0-5.504 1.536-1.92 1.536-1.92 4.352 0 2.88 1.728 4.16 1.792 1.28 5.312 1.856l2.624.384q4.992.768 7.36 3.008 2.432 2.176 2.432 6.144 0 4.608-3.136 7.168-3.072 2.56-8.512 2.56z"/><path id="J" d="M304.498 353v-32.768h3.648v5.184h.192q.512-1.216 1.28-2.24.768-1.088 1.856-1.92 1.088-.832 2.56-1.28 1.536-.512 3.584-.512 3.52 0 6.208 1.664 2.688 1.664 3.904 5.248h.192q.896-2.88 3.392-4.864 2.56-2.048 6.912-2.048 5.248 0 8.064 3.264 2.816 3.2 2.816 9.216V353h-3.648v-20.416q0-9.856-8.256-9.856-1.728 0-3.264.448-1.536.448-2.752 1.408-1.152.896-1.856 2.304-.704 1.344-.704 3.136V353h-3.648v-20.416q0-9.856-8.192-9.856-1.664 0-3.264.448-1.536.448-2.752 1.344-1.216.896-1.92 2.304-.704 1.344-.704 3.136V353z"/><path id="K" d="M398.321 353q-1.984 0-3.008-1.088-1.024-1.088-1.024-2.88V305.64h3.648v44.16h5.056v3.2z"/><path id="L" d="M430.385 347.112q1.6 0 2.304.832.768.832.768 2.112v.832q0 2.688-1.536 5.696-1.472 3.072-3.968 5.248h-3.072q2.112-2.176 3.2-4.224 1.152-2.048 1.536-4.16-1.28-.128-1.792-.832-.512-.768-.512-1.792v-.768q0-1.28.704-2.112.768-.832 2.368-.832z"/><path id="M" d="M501.489 353.768q-3.264 0-5.952-1.152-2.624-1.152-4.544-3.328-1.856-2.24-2.88-5.44-.96-3.2-.96-7.232 0-4.032.96-7.168 1.024-3.2 2.88-5.376 1.92-2.24 4.544-3.392 2.624-1.216 5.888-1.216 3.136 0 5.696 1.216 2.56 1.152 4.352 3.264 1.792 2.112 2.752 5.12 1.024 2.944 1.024 6.528v1.728h-24.256v1.6q0 2.56.704 4.736.768 2.112 2.112 3.648 1.408 1.536 3.392 2.432 1.984.832 4.48.832 7.168 0 9.92-6.592l2.688 1.792q-1.536 3.648-4.864 5.824-3.264 2.176-7.936 2.176zm-.064-31.232q-2.368 0-4.288.896-1.92.832-3.328 2.368-1.344 1.536-2.112 3.712-.704 2.112-.704 4.672v.32h20.288v-.512q0-2.56-.704-4.672-.704-2.176-2.048-3.648-1.28-1.472-3.136-2.304-1.792-.832-3.968-.832z"/></defs><g clip-path="url(#A)"><path d="M0 0h1280v480H0z" fill="#fff"/><path d="M321.541 256V121.286h57.9q18.721 0 28.95 11.001 10.229 11.001 10.229 29.529 0 18.528-10.229 29.529-10.229 11.001-28.95 11.001H343.35V256zm21.809-72.761h34.74q8.299 0 12.931-4.246 4.632-4.439 4.632-12.545v-9.264q0-8.106-4.632-12.352-4.632-4.439-12.931-4.439h-34.74zm108.273-45.548q-6.562 0-9.65-3.088-2.895-3.088-2.895-7.913v-3.281q0-4.825 2.895-7.913 3.088-3.088 9.65-3.088 6.562 0 9.457 3.088 2.895 3.088 2.895 7.913v3.281q0 4.825-2.895 7.913-2.895 3.088-9.457 3.088zm-10.615 17.949h21.037V256h-21.037z"/><use xlink:href="#F"/><path d="M628.796 258.316q-10.422 0-19.107-3.667-8.492-3.667-14.475-10.422-5.983-6.948-9.264-16.598-3.281-9.843-3.281-21.809 0-11.966 3.281-21.616 3.281-9.843 9.264-16.598 5.983-6.948 14.475-10.615 8.685-3.667 19.107-3.667 10.422 0 18.914 3.667 8.685 3.667 14.668 10.615 5.983 6.755 9.264 16.598 3.281 9.65 3.281 21.616 0 11.966-3.281 21.809-3.281 9.65-9.264 16.598-5.983 6.755-14.668 10.422-8.492 3.667-18.914 3.667zm0-17.37q10.808 0 17.37-6.562 6.562-6.755 6.562-20.072v-16.984q0-13.317-6.562-19.879-6.562-6.755-17.37-6.755-10.808 0-17.37 6.755-6.562 6.562-6.562 19.879v16.984q0 13.317 6.562 20.072 6.562 6.562 17.37 6.562zm108.273 17.37q-10.808 0-19.3-3.667-8.492-3.667-14.282-10.422-5.79-6.948-8.878-16.598-3.088-9.843-3.088-21.809 0-11.966 3.088-21.616 3.088-9.843 8.878-16.598 5.79-6.948 14.282-10.615 8.492-3.667 19.3-3.667 15.054 0 24.704 6.755 9.65 6.755 14.089 17.949l-17.37 8.106q-2.123-6.948-7.527-11.001-5.211-4.246-13.896-4.246-11.58 0-17.563 7.334-5.79 7.141-5.79 18.721v17.949q0 11.58 5.79 18.914 5.983 7.141 17.563 7.141 9.264 0 14.668-4.439 5.597-4.632 8.878-12.159l16.019 8.492q-5.018 12.352-15.054 18.914-10.036 6.562-24.511 6.562zM796.706 256V155.64h21.037v19.3h.965q2.123-7.72 8.878-13.51 6.755-5.79 18.721-5.79h5.597v20.265h-8.299q-12.545 0-19.3 4.053-6.562 4.053-6.562 11.966V256zm137.222-100.36h20.265l-42.267 120.239q-1.737 5.018-4.053 8.492-2.123 3.667-5.211 5.79-2.895 2.316-7.141 3.281-4.246 1.158-10.036 1.158h-12.159v-17.177h16.984l5.79-16.984-36.477-104.799h21.037l20.072 59.058 5.79 21.809h.965l6.369-21.809zm37.635 0H992.6v16.598h.965q3.281-9.071 10.615-13.896 7.527-5.018 17.563-5.018 19.107 0 29.529 13.896 10.422 13.703 10.422 38.6 0 24.897-10.422 38.793-10.422 13.703-29.529 13.703-10.036 0-17.563-5.018-7.334-5.018-10.615-13.896h-.965V294.6h-21.037zm43.811 84.534q11.001 0 17.563-6.948 6.562-7.141 6.562-18.721v-17.37q0-11.58-6.562-18.528-6.562-7.141-17.563-7.141-9.65 0-16.212 4.825-6.562 4.632-6.562 12.352v34.354q0 7.72 6.562 12.545 6.562 4.632 16.212 4.632zM1112.453 256q-11.001 0-16.598-5.597-5.597-5.79-5.597-16.212v-61.374h-15.633V155.64h8.492q5.211 0 7.141-2.316 2.123-2.316 2.123-7.527v-17.563h18.914v27.406h21.037v17.177h-21.037v66.006h19.493V256zm-968.275 97l-14.976-44.672h4.16l13.184 40.768h.256l13.312-40.768h4.032L149.042 353zm37.248.768q-3.264 0-5.952-1.152-2.624-1.152-4.544-3.328-1.856-2.24-2.88-5.44-.96-3.2-.96-7.232 0-4.032.96-7.168 1.024-3.2 2.88-5.376 1.92-2.24 4.544-3.392 2.624-1.216 5.888-1.216 3.136 0 5.696 1.216 2.56 1.152 4.352 3.264 1.792 2.112 2.752 5.12 1.024 2.944 1.024 6.528v1.728H170.93v1.6q0 2.56.704 4.736.768 2.112 2.112 3.648 1.408 1.536 3.392 2.432 1.984.832 4.48.832 7.168 0 9.92-6.592l2.688 1.792q-1.536 3.648-4.864 5.824-3.264 2.176-7.936 2.176zm-.064-31.232q-2.368 0-4.288.896-1.92.832-3.328 2.368-1.344 1.536-2.112 3.712-.704 2.112-.704 4.672v.32h20.288v-.512q0-2.56-.704-4.672-.704-2.176-2.048-3.648-1.28-1.472-3.136-2.304-1.792-.832-3.968-.832z"/><use xlink:href="#G"/><use xlink:href="#H"/><use xlink:href="#I"/><use xlink:href="#J"/><path d="M383.089 353q-2.112 0-3.072-1.088-.96-1.088-1.088-2.944v-1.152h-.32q-1.088 2.752-3.584 4.352-2.496 1.6-6.336 1.6-5.184 0-8-2.496-2.816-2.56-2.816-7.168 0-4.352 3.072-6.912 3.136-2.56 10.24-2.56h7.552v-3.84q0-8.128-8.384-8.128-3.264 0-5.44 1.408-2.176 1.344-3.52 3.904l-2.304-1.92q1.344-2.88 4.096-4.736 2.816-1.856 7.296-1.856 5.76 0 8.832 2.88 3.072 2.88 3.072 8.064V349.8h4.416v3.2zm-13.888-2.368q1.984 0 3.712-.512 1.728-.512 3.008-1.408 1.344-.96 2.048-2.24.768-1.344.768-3.008v-6.08h-7.68q-4.928 0-7.168 1.6-2.176 1.536-2.176 4.288v1.536q0 2.88 2.048 4.352 2.048 1.472 5.44 1.472z"/><use xlink:href="#K"/><path d="M414.769 353q-1.984 0-3.008-1.088-1.024-1.088-1.024-2.88V305.64h3.648v44.16h5.056v3.2z"/><use xlink:href="#L"/><path d="M455.153 320.232h3.84l10.048 28.864h.256l9.984-28.864h3.712L471.153 353h-4.16z"/><use xlink:href="#M"/><path d="M524.529 353v-32.768h3.648v5.888h.256q.96-2.304 3.264-4.096 2.304-1.792 6.528-1.792h2.176v3.584h-2.88q-4.096 0-6.72 1.792-2.624 1.792-2.624 4.992V353zm43.328-32.768h3.712l-15.168 41.984q-.768 2.048-1.856 2.816-1.088.768-3.584.768h-3.712v-3.2h5.504l3.136-8.64-12.16-33.728h3.84l10.048 28.864h.256zm35.455 33.536q-4.288 0-7.36-1.6-3.008-1.6-5.248-4.672l2.688-2.112q2.048 2.688 4.48 3.968 2.432 1.28 5.696 1.28 3.776 0 5.824-1.6 2.048-1.6 2.048-4.608 0-2.624-1.6-4.096-1.536-1.536-5.12-2.048l-2.688-.448q-2.24-.32-4.096-.96-1.856-.64-3.2-1.728-1.28-1.088-2.048-2.624-.704-1.6-.704-3.84 0-2.304.832-4.032.896-1.728 2.368-2.88 1.472-1.152 3.52-1.728 2.048-.576 4.416-.576 4.096 0 6.72 1.408 2.624 1.408 4.48 3.648l-2.432 2.24q-1.28-1.536-3.456-2.816-2.112-1.344-5.504-1.344-3.52 0-5.504 1.536-1.92 1.536-1.92 4.352 0 2.88 1.728 4.16 1.792 1.28 5.312 1.856l2.624.384q4.992.768 7.36 3.008 2.432 2.176 2.432 6.144 0 4.608-3.136 7.168-3.072 2.56-8.512 2.56zm23.04-42.432q-1.28 0-1.92-.64-.576-.64-.576-1.664v-.64q0-1.024.576-1.664.64-.64 1.92-.64 1.28 0 1.856.64.64.64.64 1.664v.64q0 1.024-.64 1.664-.576.64-1.856.64zm-1.792 8.896h3.648V353h-3.648zM640.112 353v-32.768h3.648v5.184h.192q.512-1.216 1.28-2.24.768-1.088 1.856-1.92 1.088-.832 2.56-1.28 1.536-.512 3.584-.512 3.52 0 6.208 1.664 2.688 1.664 3.904 5.248h.192q.896-2.88 3.392-4.864 2.56-2.048 6.912-2.048 5.248 0 8.064 3.264 2.816 3.2 2.816 9.216V353h-3.648v-20.416q0-9.856-8.256-9.856-1.728 0-3.264.448-1.536.448-2.752 1.408-1.152.896-1.856 2.304-.704 1.344-.704 3.136V353h-3.648v-20.416q0-9.856-8.192-9.856-1.664 0-3.264.448-1.536.448-2.752 1.344-1.216.896-1.92 2.304-.704 1.344-.704 3.136V353zm56.064-32.768h3.648v5.248h.192q1.216-2.752 3.712-4.352 2.496-1.664 6.272-1.664 6.336 0 9.92 4.48 3.584 4.48 3.584 12.672 0 8.192-3.584 12.672-3.584 4.48-9.92 4.48-3.776 0-6.208-1.6-2.432-1.664-3.776-4.416h-.192V365.8h-3.648zm12.992 30.272q4.928 0 7.68-3.136 2.752-3.136 2.752-8.448v-4.608q0-5.312-2.752-8.448-2.752-3.136-7.68-3.136-1.92 0-3.648.576-1.664.512-2.944 1.472-1.28.96-2.048 2.304-.704 1.344-.704 2.944v12.992q0 1.728.704 3.136.768 1.344 2.048 2.368 1.28.96 2.944 1.472 1.728.512 3.648.512zM736.944 353q-1.984 0-3.008-1.088-1.024-1.088-1.024-2.88V305.64h3.648v44.16h5.056v3.2zm24.576.768q-3.264 0-5.952-1.152-2.624-1.152-4.544-3.328-1.856-2.24-2.88-5.44-.96-3.2-.96-7.232 0-4.032.96-7.168 1.024-3.2 2.88-5.376 1.92-2.24 4.544-3.392 2.624-1.216 5.888-1.216 3.136 0 5.696 1.216 2.56 1.152 4.352 3.264 1.792 2.112 2.752 5.12 1.024 2.944 1.024 6.528v1.728h-24.256v1.6q0 2.56.704 4.736.768 2.112 2.112 3.648 1.408 1.536 3.392 2.432 1.984.832 4.48.832 7.168 0 9.92-6.592l2.688 1.792q-1.536 3.648-4.864 5.824-3.264 2.176-7.936 2.176zm-.064-31.232q-2.368 0-4.288.896-1.92.832-3.328 2.368-1.344 1.536-2.112 3.712-.704 2.112-.704 4.672v.32h20.288v-.512q0-2.56-.704-4.672-.704-2.176-2.048-3.648-1.28-1.472-3.136-2.304-1.792-.832-3.968-.832zm24.064 24.576q1.6 0 2.304.832.768.832.768 2.112v.832q0 2.688-1.536 5.696-1.472 3.072-3.968 5.248h-3.072q2.112-2.176 3.2-4.224 1.152-2.048 1.536-4.16-1.28-.128-1.792-.832-.512-.768-.512-1.792v-.768q0-1.28.704-2.112.768-.832 2.368-.832zm24.768-26.88h3.84l10.048 28.864h.256l9.984-28.864h3.712L826.288 353h-4.16zm46.336 33.536q-3.264 0-5.952-1.152-2.624-1.152-4.544-3.328-1.856-2.24-2.88-5.44-.96-3.2-.96-7.232 0-4.032.96-7.168 1.024-3.2 2.88-5.376 1.92-2.24 4.544-3.392 2.624-1.216 5.888-1.216 3.136 0 5.696 1.216 2.56 1.152 4.352 3.264 1.792 2.112 2.752 5.12 1.024 2.944 1.024 6.528v1.728h-24.256v1.6q0 2.56.704 4.736.768 2.112 2.112 3.648 1.408 1.536 3.392 2.432 1.984.832 4.48.832 7.168 0 9.92-6.592l2.688 1.792q-1.536 3.648-4.864 5.824-3.264 2.176-7.936 2.176zm-.064-31.232q-2.368 0-4.288.896-1.92.832-3.328 2.368-1.344 1.536-2.112 3.712-.704 2.112-.704 4.672v.32h20.288v-.512q0-2.56-.704-4.672-.704-2.176-2.048-3.648-1.28-1.472-3.136-2.304-1.792-.832-3.968-.832zM879.664 353v-32.768h3.648v5.888h.256q.96-2.304 3.264-4.096 2.304-1.792 6.528-1.792h2.176v3.584h-2.88q-4.096 0-6.72 1.792-2.624 1.792-2.624 4.992V353zm43.328-32.768h3.712l-15.168 41.984q-.768 2.048-1.856 2.816-1.088.768-3.584.768h-3.712v-3.2h5.504l3.136-8.64-12.16-33.728h3.84l10.048 28.864h.256zm35.455 33.536q-4.288 0-7.36-1.6-3.008-1.6-5.248-4.672l2.688-2.112q2.048 2.688 4.48 3.968 2.432 1.28 5.696 1.28 3.776 0 5.824-1.6 2.048-1.6 2.048-4.608 0-2.624-1.6-4.096-1.536-1.536-5.12-2.048l-2.688-.448q-2.24-.32-4.096-.96-1.856-.64-3.2-1.728-1.28-1.088-2.048-2.624-.704-1.6-.704-3.84 0-2.304.832-4.032.896-1.728 2.368-2.88 1.472-1.152 3.52-1.728 2.048-.576 4.416-.576 4.096 0 6.72 1.408 2.624 1.408 4.48 3.648l-2.432 2.24q-1.28-1.536-3.456-2.816-2.112-1.344-5.504-1.344-3.52 0-5.504 1.536-1.92 1.536-1.92 4.352 0 2.88 1.728 4.16 1.792 1.28 5.312 1.856l2.624.384q4.992.768 7.36 3.008 2.432 2.176 2.432 6.144 0 4.608-3.136 7.168-3.072 2.56-8.512 2.56zm32.96 0q-3.264 0-5.952-1.152-2.624-1.152-4.544-3.328-1.856-2.24-2.88-5.44-.96-3.2-.96-7.232 0-4.032.96-7.168 1.024-3.2 2.88-5.376 1.92-2.24 4.544-3.392 2.624-1.216 5.888-1.216 3.136 0 5.696 1.216 2.56 1.152 4.352 3.264 1.792 2.112 2.752 5.12 1.024 2.944 1.024 6.528v1.728h-24.256v1.6q0 2.56.704 4.736.768 2.112 2.112 3.648 1.408 1.536 3.392 2.432 1.984.832 4.48.832 7.168 0 9.92-6.592l2.688 1.792q-1.536 3.648-4.864 5.824-3.264 2.176-7.936 2.176zm-.064-31.232q-2.368 0-4.288.896-1.92.832-3.328 2.368-1.344 1.536-2.112 3.712-.704 2.112-.704 4.672v.32h20.288v-.512q0-2.56-.704-4.672-.704-2.176-2.048-3.648-1.28-1.472-3.136-2.304-1.792-.832-3.968-.832zm34.624 31.232q-6.784 0-10.496-4.48-3.648-4.48-3.648-12.672 0-8.192 3.648-12.672 3.712-4.48 10.496-4.48 4.544 0 7.36 1.984 2.816 1.984 4.288 5.248l-3.072 1.536q-1.152-2.688-3.264-4.096-2.048-1.408-5.312-1.408-4.992 0-7.616 3.2-2.624 3.2-2.624 8.384v4.608q0 5.184 2.624 8.384 2.624 3.2 7.616 3.2 3.392 0 5.696-1.472 2.304-1.472 3.712-4.224l2.688 1.792q-1.6 3.264-4.608 5.248-2.944 1.92-7.488 1.92zm40.704-5.952h-.256q-.448 1.152-1.216 2.24-.768 1.088-1.92 1.92-1.152.768-2.752 1.28-1.536.512-3.648.512-5.248 0-8.192-3.2-2.944-3.264-2.944-9.28v-21.056h3.648v20.352q0 5.056 2.176 7.488 2.176 2.432 6.272 2.432 1.728 0 3.264-.448 1.6-.448 2.816-1.344 1.28-.896 1.984-2.24.768-1.408.768-3.264v-22.976h3.648V353h-3.648zm15.552 5.184v-32.768h3.648v5.888h.256q.96-2.304 3.264-4.096 2.304-1.792 6.528-1.792h2.176v3.584h-2.88q-4.096 0-6.72 1.792-2.624 1.792-2.624 4.992V353zm34.368.768q-3.264 0-5.952-1.152-2.624-1.152-4.544-3.328-1.856-2.24-2.88-5.44-.96-3.2-.96-7.232 0-4.032.96-7.168 1.024-3.2 2.88-5.376 1.92-2.24 4.544-3.392 2.624-1.216 5.888-1.216 3.136 0 5.696 1.216 2.56 1.152 4.352 3.264 1.792 2.112 2.752 5.12 1.024 2.944 1.024 6.528v1.728h-24.256v1.6q0 2.56.704 4.736.768 2.112 2.112 3.648 1.408 1.536 3.392 2.432 1.984.832 4.48.832 7.168 0 9.92-6.592l2.688 1.792q-1.536 3.648-4.864 5.824-3.264 2.176-7.936 2.176zm-.064-31.232q-2.368 0-4.288.896-1.92.832-3.328 2.368-1.344 1.536-2.112 3.712-.704 2.112-.704 4.672v.32h20.288v-.512q0-2.56-.704-4.672-.704-2.176-2.048-3.648-1.28-1.472-3.136-2.304-1.792-.832-3.968-.832zm24.064 31.04q-1.6 0-2.368-.768-.704-.832-.704-2.112v-.704q0-1.28.704-2.048.768-.832 2.368-.832 1.536 0 2.304.832.768.768.768 2.048v.704q0 1.28-.768 2.112-.768.768-2.304.768z"/><g clip-path="url(#B)"><g clip-path="url(#C)"><g clip-path="url(#D)"><path d="M233.781 156.296c0-4.832 3.918-8.75 8.75-8.75a8.75 8.75 0 1 1 0 17.5 8.75 8.75 0 0 1-8.75-8.75zM178 252.513v-9.844h9.844a5.47 5.47 0 0 0 5.468-5.469v-9.843h9.844a5.47 5.47 0 0 0 5.469-5.469 5.47 5.47 0 0 0-5.469-5.469h-15.312a5.47 5.47 0 0 0-5.469 5.469v9.844h-9.844a5.47 5.47 0 0 0-5.469 5.469v9.843h-13.124v-16.328l48.494-48.495a5.47 5.47 0 0 0 .809-6.704 88.53 88.53 0 0 1-5.174-9.922c-1.804-4.058-.885-8.906 2.288-12.063l21.475-21.375c3.065-3.051 7.659-4.024 11.702-2.479 6.35 2.427 15.501 6.894 23.039 14.397 7.584 7.548 12.201 16.834 14.738 23.296a10.86 10.86 0 0 1-2.451 11.672l-21.735 21.633c-3.164 3.15-7.889 4.07-12.035 2.346-3.42-1.423-6.732-3.112-9.844-5.022a5.47 5.47 0 0 0-7.521 1.8 5.47 5.47 0 0 0 1.8 7.522c3.596 2.207 7.42 4.158 11.364 5.798 8.242 3.429 17.643 1.586 23.952-4.692l21.734-21.632c6.165-6.136 8.095-15.33 4.917-23.423-2.921-7.435-8.276-18.165-17.204-27.05-8.896-8.855-19.511-14.057-26.85-16.862a21.99 21.99 0 0 0-23.323 4.944l-21.475 21.375c-6.366 6.336-8.2 16.085-4.566 24.259 1.127 2.535 2.353 5.015 3.663 7.411l-47.133 47.133a5.47 5.47 0 0 0-1.602 3.868v24.062a5.47 5.47 0 0 0 5.469 5.469h24.062a5.47 5.47 0 0 0 5.469-5.469z" fill="url(#E)"/></g></g></g></g></svg>