<?xml version="1.0" encoding="UTF-8" standalone="no"?>
<svg
   xmlns:dc="http://purl.org/dc/elements/1.1/"
   xmlns:cc="http://creativecommons.org/ns#"
   xmlns:rdf="http://www.w3.org/1999/02/22-rdf-syntax-ns#"
   xmlns:svg="http://www.w3.org/2000/svg"
   xmlns="http://www.w3.org/2000/svg"
   xmlns:sodipodi="http://sodipodi.sourceforge.net/DTD/sodipodi-0.dtd"
   xmlns:inkscape="http://www.inkscape.org/namespaces/inkscape"
   width="1280"
   height="480"
   overflow="hidden"
   version="1.1"
   id="svg200"
   sodipodi:docname="Picocrypt.svg"
   inkscape:version="1.0.2-2 (e86c870879, 2021-01-15)">
  <metadata
     id="metadata204">
    <rdf:RDF>
      <cc:Work
         rdf:about="">
        <dc:format>image/svg+xml</dc:format>
        <dc:type
           rdf:resource="http://purl.org/dc/dcmitype/StillImage" />
        <dc:title></dc:title>
      </cc:Work>
    </rdf:RDF>
  </metadata>
  <sodipodi:namedview
     pagecolor="#ffffff"
     bordercolor="#666666"
     borderopacity="1"
     objecttolerance="10"
     gridtolerance="10"
     guidetolerance="10"
     inkscape:pageopacity="0"
     inkscape:pageshadow="2"
     inkscape:window-width="1920"
     inkscape:window-height="1017"
     id="namedview202"
     showgrid="false"
     inkscape:zoom="0.8140625"
     inkscape:cx="640"
     inkscape:cy="240"
     inkscape:window-x="-8"
     inkscape:window-y="-8"
     inkscape:window-maximized="1"
     inkscape:current-layer="svg200" />
  <defs
     id="defs182">
    <clipPath
       id="clip0">
      <rect
         x="0"
         y="0"
         width="1280"
         height="480"
         id="rect157" />
    </clipPath>
    <clipPath
       id="clip1">
      <rect
         x="143"
         y="118"
         width="140"
         height="140"
         id="rect160" />
    </clipPath>
    <clipPath
       id="clip2">
      <rect
         x="143"
         y="118"
         width="140"
         height="140"
         id="rect163" />
    </clipPath>
    <clipPath
       id="clip3">
      <rect
         x="143"
         y="118"
         width="140"
         height="140"
         id="rect166" />
    </clipPath>
    <linearGradient
       x1="143"
       y1="188"
       x2="283"
       y2="188"
       gradientUnits="userSpaceOnUse"
       spreadMethod="pad"
       id="fill4">
      <stop
         offset="0"
         stop-color="#00F2FE"
         id="stop169" />
      <stop
         offset="0.021"
         stop-color="#03EFFE"
         id="stop171" />
      <stop
         offset="0.293"
         stop-color="#24D2FE"
         id="stop173" />
      <stop
         offset="0.554"
         stop-color="#3CBDFE"
         id="stop175" />
      <stop
         offset="0.796"
         stop-color="#4AB0FE"
         id="stop177" />
      <stop
         offset="1"
         stop-color="#4FACFE"
         id="stop179" />
    </linearGradient>
  </defs>
  <g
     clip-path="url(#clip0)"
     id="g198">
    <path
       id="rect184"
       style="fill:#ffffff"
       d="M 0,0 H 1280 V 480 H 0 Z" />
    <g
       aria-label="PicocryptVery small, very simple, very secure."
       transform="translate(304.943 256)"
       id="text188"
       style="font-weight:500;font-size:193px;font-family:'IBM Plex Sans', 'IBM Plex Sans_MSFontService', sans-serif">
      <path
         d="m 16.598,0 v -134.714 h 57.9 q 18.721,0 28.95,11.001 10.229,11.001 10.229,29.529 0,18.528 -10.229,29.529 -10.229,11.001 -28.95,11.001 H 38.407 V 0 Z m 21.809,-72.761 h 34.74 q 8.299,0 12.931,-4.246 4.632,-4.439 4.632,-12.545 v -9.264 q 0,-8.106 -4.632,-12.352 -4.632,-4.439 -12.931,-4.439 h -34.74 z"
         style="font-weight:500;font-size:193px;font-family:'IBM Plex Sans', 'IBM Plex Sans_MSFontService', sans-serif"
         id="path207" />
      <path
         d="m 146.67979,-118.309 q -6.562,0 -9.65,-3.088 -2.895,-3.088 -2.895,-7.913 v -3.281 q 0,-4.825 2.895,-7.913 3.088,-3.088 9.65,-3.088 6.562,0 9.457,3.088 2.895,3.088 2.895,7.913 v 3.281 q 0,4.825 -2.895,7.913 -2.895,3.088 -9.457,3.088 z m -10.615,17.949 h 21.037 V 0 h -21.037 z"
         style="font-weight:500;font-size:193px;font-family:'IBM Plex Sans', 'IBM Plex Sans_MSFontService', sans-serif"
         id="path209" />
      <path
         d="m 226.00267,2.316 q -10.808,0 -19.3,-3.667 -8.492,-3.667 -14.282,-10.422 -5.79,-6.948 -8.878,-16.598 -3.088,-9.843 -3.088,-21.809 0,-11.966 3.088,-21.616 3.088,-9.843 8.878,-16.598 5.79,-6.948 14.282,-10.615 8.492,-3.667 19.3,-3.667 15.054,0 24.704,6.755 9.65,6.755 14.089,17.949 l -17.37,8.106 q -2.123,-6.948 -7.527,-11.001 -5.211,-4.246 -13.896,-4.246 -11.58,0 -17.563,7.334 -5.79,7.141 -5.79,18.721 v 17.949 q 0,11.58 5.79,18.914 5.983,7.141 17.563,7.141 9.264,0 14.668,-4.439 5.597,-4.632 8.878,-12.159 l 16.019,8.492 q -5.018,12.352 -15.054,18.914 -10.036,6.562 -24.511,6.562 z"
         style="font-weight:500;font-size:193px;font-family:'IBM Plex Sans', 'IBM Plex Sans_MSFontService', sans-serif"
         id="path211" />
      <path
         d="m 323.85325,2.316 q -10.422,0 -19.107,-3.667 -8.492,-3.667 -14.475,-10.422 -5.983,-6.948 -9.264,-16.598 -3.281,-9.843 -3.281,-21.809 0,-11.966 3.281,-21.616 3.281,-9.843 9.264,-16.598 5.983,-6.948 14.475,-10.615 8.685,-3.667 19.107,-3.667 10.422,0 18.914,3.667 8.685,3.667 14.668,10.615 5.983,6.755 9.264,16.598 3.281,9.65 3.281,21.616 0,11.966 -3.281,21.809 -3.281,9.65 -9.264,16.598 -5.983,6.755 -14.668,10.422 -8.492,3.667 -18.914,3.667 z m 0,-17.37 q 10.808,0 17.37,-6.562 6.562,-6.755 6.562,-20.072 v -16.984 q 0,-13.317 -6.562,-19.879 -6.562,-6.755 -17.37,-6.755 -10.808,0 -17.37,6.755 -6.562,6.562 -6.562,19.879 v 16.984 q 0,13.317 6.562,20.072 6.562,6.562 17.37,6.562 z"
         style="font-weight:500;font-size:193px;font-family:'IBM Plex Sans', 'IBM Plex Sans_MSFontService', sans-serif"
         id="path213" />
      <path
         d="m 432.12608,2.316 q -10.808,0 -19.3,-3.667 -8.492,-3.667 -14.282,-10.422 -5.79,-6.948 -8.878,-16.598 -3.088,-9.843 -3.088,-21.809 0,-11.966 3.088,-21.616 3.088,-9.843 8.878,-16.598 5.79,-6.948 14.282,-10.615 8.492,-3.667 19.3,-3.667 15.054,0 24.704,6.755 9.65,6.755 14.089,17.949 l -17.37,8.106 q -2.123,-6.948 -7.527,-11.001 -5.211,-4.246 -13.896,-4.246 -11.58,0 -17.563,7.334 -5.79,7.141 -5.79,18.721 v 17.949 q 0,11.58 5.79,18.914 5.983,7.141 17.563,7.141 9.264,0 14.668,-4.439 5.597,-4.632 8.878,-12.159 l 16.019,8.492 q -5.018,12.352 -15.054,18.914 -10.036,6.562 -24.511,6.562 z"
         style="font-weight:500;font-size:193px;font-family:'IBM Plex Sans', 'IBM Plex Sans_MSFontService', sans-serif"
         id="path215" />
      <path
         d="m 491.76274,0 v -100.36 h 21.037 v 19.3 h 0.965 q 2.123,-7.72 8.878,-13.51 6.755,-5.79 18.721,-5.79 h 5.597 v 20.265 h -8.299 q -12.545,0 -19.3,4.053 -6.562,4.053 -6.562,11.966 V 0 Z"
         style="font-weight:500;font-size:193px;font-family:'IBM Plex Sans', 'IBM Plex Sans_MSFontService', sans-serif"
         id="path217" />
      <path
         d="m 628.98544,-100.36 h 20.265 l -42.267,120.239 q -1.737,5.018 -4.053,8.492 -2.123,3.667 -5.211,5.79 -2.895,2.316 -7.141,3.281 -4.246,1.158 -10.036,1.158 h -12.159 V 21.423 h 16.984 l 5.79,-16.984 -36.477,-104.799 h 21.037 l 20.072,59.058 5.79,21.809 h 0.965 l 6.369,-21.809 z"
         style="font-weight:500;font-size:193px;font-family:'IBM Plex Sans', 'IBM Plex Sans_MSFontService', sans-serif"
         id="path219" />
      <path
         d="m 666.62041,-100.36 h 21.037 v 16.598 h 0.965 q 3.281,-9.071 10.615,-13.896 7.527,-5.018 17.563,-5.018 19.107,0 29.529,13.896 10.422,13.703 10.422,38.6 0,24.897 -10.422,38.793 -10.422,13.703 -29.529,13.703 -10.036,0 -17.563,-5.018 -7.334,-5.018 -10.615,-13.896 h -0.965 V 38.6 h -21.037 z m 43.811,84.534 q 11.001,0 17.563,-6.948 6.562,-7.141 6.562,-18.721 v -17.37 q 0,-11.58 -6.562,-18.528 -6.562,-7.141 -17.563,-7.141 -9.65,0 -16.212,4.825 -6.562,4.632 -6.562,12.352 v 34.354 q 0,7.72 6.562,12.545 6.562,4.632 16.212,4.632 z"
         style="font-weight:500;font-size:193px;font-family:'IBM Plex Sans', 'IBM Plex Sans_MSFontService', sans-serif"
         id="path221" />
      <path
         d="m 807.51012,0 q -11.001,0 -16.598,-5.597 -5.597,-5.79 -5.597,-16.212 v -61.374 h -15.633 v -17.177 h 8.492 q 5.211,0 7.141,-2.316 2.123,-2.316 2.123,-7.527 v -17.563 h 18.914 v 27.406 h 21.037 v 17.177 h -21.037 v 66.006 h 19.493 V 0 Z"
         style="font-weight:500;font-size:193px;font-family:'IBM Plex Sans', 'IBM Plex Sans_MSFontService', sans-serif"
         id="path223" />
      <path
         d="m -160.76499,97 -14.976,-44.672 h 4.16 l 13.184,40.768 h 0.256 l 13.312,-40.768 h 4.032 L -155.90099,97 Z"
         style="font-weight:300;font-size:64px"
         id="path225" />
      <path
         d="m -123.51705,97.768 q -3.264,0 -5.952,-1.152 -2.624,-1.152 -4.544,-3.328 -1.856,-2.24 -2.88,-5.44 -0.96,-3.2 -0.96,-7.232 0,-4.032 0.96,-7.168 1.024,-3.2 2.88,-5.376 1.92,-2.24 4.544,-3.392 2.624,-1.216 5.888,-1.216 3.136,0 5.696,1.216 2.56,1.152 4.352,3.264 1.792,2.112 2.752,5.12 1.024,2.944 1.024,6.528 v 1.728 h -24.256 v 1.6 q 0,2.56 0.704,4.736 0.768,2.112 2.112,3.648 1.408,1.536 3.392,2.432 1.984,0.832 4.48,0.832 7.168,0 9.92,-6.592 l 2.688,1.792 q -1.536,3.648 -4.864,5.824 -3.264,2.176 -7.936,2.176 z m -0.064,-31.232 q -2.368,0 -4.288,0.896 -1.92,0.832 -3.328,2.368 -1.344,1.536 -2.112,3.712 -0.704,2.112 -0.704,4.672 v 0.32 h 20.288 v -0.512 q 0,-2.56 -0.704,-4.672 -0.704,-2.176 -2.048,-3.648 -1.28,-1.472 -3.136,-2.304 -1.792,-0.832 -3.968,-0.832 z"
         style="font-weight:300;font-size:64px"
         id="path227" />
      <path
         d="M -100.47709,97 V 64.232 h 3.647998 v 5.888 h 0.256 q 0.96,-2.304 3.264,-4.096 2.304,-1.792 6.528,-1.792 h 2.176 v 3.584 h -2.88 q -4.096,0 -6.72,1.792 -2.624,1.792 -2.624,4.992 V 97 Z"
         style="font-weight:300;font-size:64px"
         id="path229" />
      <path
         d="m -57.149196,64.232 h 3.712 l -15.168,41.984 q -0.768,2.048 -1.856,2.816 -1.088,0.768 -3.584,0.768 h -3.712 v -3.2 h 5.504 l 3.136,-8.64 -12.16,-33.728 h 3.84 l 10.048,28.864 h 0.256 z"
         style="font-weight:300;font-size:64px"
         id="path231" />
      <path
         d="m -21.69343,97.768 q -4.288,0 -7.36,-1.6 -3.008,-1.6 -5.248,-4.672 l 2.688,-2.112 q 2.048,2.688 4.48,3.968 2.432,1.28 5.696,1.28 3.776,0 5.824,-1.6 2.048,-1.6 2.048,-4.608 0,-2.624 -1.6,-4.096 -1.536,-1.536 -5.12,-2.048 l -2.688,-0.448 q -2.24,-0.32 -4.096,-0.96 -1.856,-0.64 -3.2,-1.728 -1.28,-1.088 -2.048,-2.624 -0.704,-1.6 -0.704,-3.84 0,-2.304 0.832,-4.032 0.896,-1.728 2.368,-2.88 1.472,-1.152 3.52,-1.728 2.048,-0.576 4.416,-0.576 4.096,0 6.72,1.408 2.624,1.408 4.48,3.648 l -2.432,2.24 q -1.28,-1.536 -3.456,-2.816 -2.112,-1.344 -5.504,-1.344 -3.52,0 -5.504,1.536 -1.92,1.536 -1.92,4.352 0,2.88 1.728,4.16 1.792,1.28 5.312,1.856 l 2.624,0.384 q 4.992,0.768 7.36,3.008 2.432,2.176 2.432,6.144 0,4.608 -3.136,7.168 -3.072,2.56 -8.512,2.56 z"
         style="font-weight:300;font-size:64px"
         id="path233" />
      <path
         d="M -0.4454762,97 V 64.232 h 3.648 v 5.184 h 0.192 q 0.512,-1.216 1.28,-2.24 0.768,-1.088 1.856,-1.92 1.088,-0.832 2.56,-1.28 1.5360002,-0.512 3.5840002,-0.512 3.52,0 6.208,1.664 2.688,1.664 3.904,5.248 h 0.192 q 0.896,-2.88 3.392,-4.864 2.56,-2.048 6.912,-2.048 5.248,0 8.064,3.264 2.816,3.2 2.816,9.216 V 97 h -3.648 V 76.584 q 0,-9.856 -8.256,-9.856 -1.728,0 -3.264,0.448 -1.536,0.448 -2.752,1.408 -1.152,0.896 -1.856,2.304 -0.704,1.344 -0.704,3.136 V 97 h -3.648 V 76.584 q 0,-9.856 -8.192,-9.856 -1.664,0 -3.2640002,0.448 -1.536,0.448 -2.752,1.344 -1.216,0.896 -1.92,2.304 -0.704,1.344 -0.704,3.136 V 97 Z"
         style="font-weight:300;font-size:64px"
         id="path235" />
      <path
         d="m 78.146489,97 q -2.112,0 -3.072,-1.088 -0.96,-1.088 -1.088,-2.944 v -1.152 h -0.32 q -1.088,2.752 -3.584,4.352 -2.496,1.6 -6.336,1.6 -5.184,0 -8,-2.496 -2.816,-2.56 -2.816,-7.168 0,-4.352 3.072,-6.912 3.136,-2.56 10.24,-2.56 h 7.552 v -3.84 q 0,-8.128 -8.384,-8.128 -3.264,0 -5.44,1.408 -2.176,1.344 -3.52,3.904 l -2.304,-1.92 q 1.344,-2.88 4.096,-4.736 2.816,-1.856 7.296,-1.856 5.76,0 8.832,2.88 3.072,2.88 3.072,8.064 V 93.8 h 4.416 V 97 Z m -13.888,-2.368 q 1.984,0 3.712,-0.512 1.728,-0.512 3.008,-1.408 1.344,-0.96 2.048,-2.24 0.768,-1.344 0.768,-3.008 v -6.08 h -7.68 q -4.928,0 -7.168,1.6 -2.176,1.536 -2.176,4.288 v 1.536 q 0,2.88 2.048,4.352 2.048,1.472 5.44,1.472 z"
         style="font-weight:300;font-size:64px"
         id="path237" />
      <path
         d="m 93.378394,97 q -1.984,0 -3.008,-1.088 -1.024,-1.088 -1.024,-2.88 V 49.64 h 3.648 V 93.8 h 5.056 V 97 Z"
         style="font-weight:300;font-size:64px"
         id="path239" />
      <path
         d="m 109.82627,97 q -1.984,0 -3.008,-1.088 -1.024,-1.088 -1.024,-2.88 V 49.64 h 3.648 V 93.8 h 5.056 V 97 Z"
         style="font-weight:300;font-size:64px"
         id="path241" />
      <path
         d="m 125.44218,91.112 q 1.6,0 2.304,0.832 0.768,0.832 0.768,2.112 v 0.832 q 0,2.688 -1.536,5.696 -1.472,3.072 -3.968,5.248 h -3.072 q 2.112,-2.176 3.2,-4.224 1.152,-2.048 1.536,-4.16 -1.28,-0.128 -1.792,-0.832 -0.512,-0.768 -0.512,-1.792 v -0.768 q 0,-1.28 0.704,-2.112 0.768,-0.832 2.368,-0.832 z"
         style="font-weight:300;font-size:64px"
         id="path243" />
      <path
         d="m 150.20995,64.232 h 3.84 l 10.048,28.864 h 0.256 l 9.984,-28.864 h 3.712 L 166.20995,97 h -4.16 z"
         style="font-weight:300;font-size:64px"
         id="path245" />
      <path
         d="m 196.54582,97.768 q -3.264,0 -5.952,-1.152 -2.624,-1.152 -4.544,-3.328 -1.856,-2.24 -2.88,-5.44 -0.96,-3.2 -0.96,-7.232 0,-4.032 0.96,-7.168 1.024,-3.2 2.88,-5.376 1.92,-2.24 4.544,-3.392 2.624,-1.216 5.888,-1.216 3.136,0 5.696,1.216 2.56,1.152 4.352,3.264 1.792,2.112 2.752,5.12 1.024,2.944 1.024,6.528 v 1.728 h -24.256 v 1.6 q 0,2.56 0.704,4.736 0.768,2.112 2.112,3.648 1.408,1.536 3.392,2.432 1.984,0.832 4.48,0.832 7.168,0 9.92,-6.592 l 2.688,1.792 q -1.536,3.648 -4.864,5.824 -3.264,2.176 -7.936,2.176 z m -0.064,-31.232 q -2.368,0 -4.288,0.896 -1.92,0.832 -3.328,2.368 -1.344,1.536 -2.112,3.712 -0.704,2.112 -0.704,4.672 v 0.32 h 20.288 v -0.512 q 0,-2.56 -0.704,-4.672 -0.704,-2.176 -2.048,-3.648 -1.28,-1.472 -3.136,-2.304 -1.792,-0.832 -3.968,-0.832 z"
         style="font-weight:300;font-size:64px"
         id="path247" />
      <path
         d="M 219.58577,97 V 64.232 h 3.648 v 5.888 h 0.256 q 0.96,-2.304 3.264,-4.096 2.304,-1.792 6.528,-1.792 h 2.176 v 3.584 h -2.88 q -4.096,0 -6.72,1.792 -2.624,1.792 -2.624,4.992 V 97 Z"
         style="font-weight:300;font-size:64px"
         id="path249" />
      <path
         d="m 262.91367,64.232 h 3.712 l -15.168,41.984 q -0.768,2.048 -1.856,2.816 -1.088,0.768 -3.584,0.768 h -3.712 v -3.2 h 5.504 l 3.136,-8.64 -12.16,-33.728 h 3.84 l 10.048,28.864 h 0.256 z"
         style="font-weight:300;font-size:64px"
         id="path251" />
      <path
         d="m 298.36944,97.768 q -4.288,0 -7.36,-1.6 -3.008,-1.6 -5.248,-4.672 l 2.688,-2.112 q 2.048,2.688 4.48,3.968 2.432,1.28 5.696,1.28 3.776,0 5.824,-1.6 2.048,-1.6 2.048,-4.608 0,-2.624 -1.6,-4.096 -1.536,-1.536 -5.12,-2.048 l -2.688,-0.448 q -2.24,-0.32 -4.096,-0.96 -1.856,-0.64 -3.2,-1.728 -1.28,-1.088 -2.048,-2.624 -0.704,-1.6 -0.704,-3.84 0,-2.304 0.832,-4.032 0.896,-1.728 2.368,-2.88 1.472,-1.152 3.52,-1.728 2.048,-0.576 4.416,-0.576 4.096,0 6.72,1.408 2.624,1.408 4.48,3.648 l -2.432,2.24 q -1.28,-1.536 -3.456,-2.816 -2.112,-1.344 -5.504,-1.344 -3.52,0 -5.504,1.536 -1.92,1.536 -1.92,4.352 0,2.88 1.728,4.16 1.792,1.28 5.312,1.856 l 2.624,0.384 q 4.992,0.768 7.36,3.008 2.432,2.176 2.432,6.144 0,4.608 -3.136,7.168 -3.072,2.56 -8.512,2.56 z"
         style="font-weight:300;font-size:64px"
         id="path253" />
      <path
         d="m 321.40939,55.336 q -1.28,0 -1.92,-0.64 -0.576,-0.64 -0.576,-1.664 v -0.64 q 0,-1.024 0.576,-1.664 0.64,-0.64 1.92,-0.64 1.28,0 1.856,0.64 0.64,0.64 0.64,1.664 v 0.64 q 0,1.024 -0.64,1.664 -0.576,0.64 -1.856,0.64 z m -1.792,8.896 h 3.648 V 97 h -3.648 z"
         style="font-weight:300;font-size:64px"
         id="path255" />
      <path
         d="M 335.16927,97 V 64.232 h 3.648 v 5.184 h 0.192 q 0.512,-1.216 1.28,-2.24 0.768,-1.088 1.856,-1.92 1.088,-0.832 2.56,-1.28 1.536,-0.512 3.584,-0.512 3.52,0 6.208,1.664 2.688,1.664 3.904,5.248 h 0.192 q 0.896,-2.88 3.392,-4.864 2.56,-2.048 6.912,-2.048 5.248,0 8.064,3.264 2.816,3.2 2.816,9.216 V 97 h -3.648 V 76.584 q 0,-9.856 -8.256,-9.856 -1.728,0 -3.264,0.448 -1.536,0.448 -2.752,1.408 -1.152,0.896 -1.856,2.304 -0.704,1.344 -0.704,3.136 V 97 h -3.648 V 76.584 q 0,-9.856 -8.192,-9.856 -1.664,0 -3.264,0.448 -1.536,0.448 -2.752,1.344 -1.216,0.896 -1.92,2.304 -0.704,1.344 -0.704,3.136 V 97 Z"
         style="font-weight:300;font-size:64px"
         id="path257" />
      <path
         d="m 391.23323,64.232 h 3.648 v 5.248 h 0.192 q 1.216,-2.752 3.712,-4.352 2.496,-1.664 6.272,-1.664 6.336,0 9.92,4.48 3.584,4.48 3.584,12.672 0,8.192 -3.584,12.672 -3.584,4.48 -9.92,4.48 -3.776,0 -6.208,-1.6 -2.432,-1.664 -3.776,-4.416 h -0.192 V 109.8 h -3.648 z m 12.992,30.272 q 4.928,0 7.68,-3.136 2.752,-3.136 2.752,-8.448 v -4.608 q 0,-5.312 -2.752,-8.448 -2.752,-3.136 -7.68,-3.136 -1.92,0 -3.648,0.576 -1.664,0.512 -2.944,1.472 -1.28,0.96 -2.048,2.304 -0.704,1.344 -0.704,2.944 v 12.992 q 0,1.728 0.704,3.136 0.768,1.344 2.048,2.368 1.28,0.96 2.944,1.472 1.728,0.512 3.648,0.512 z"
         style="font-weight:300;font-size:64px"
         id="path259" />
      <path
         d="m 432.0012,97 q -1.984,0 -3.008,-1.088 -1.024,-1.088 -1.024,-2.88 V 49.64 h 3.648 V 93.8 h 5.056 V 97 Z"
         style="font-weight:300;font-size:64px"
         id="path261" />
      <path
         d="m 456.57719,97.768 q -3.264,0 -5.952,-1.152 -2.624,-1.152 -4.544,-3.328 -1.856,-2.24 -2.88,-5.44 -0.96,-3.2 -0.96,-7.232 0,-4.032 0.96,-7.168 1.024,-3.2 2.88,-5.376 1.92,-2.24 4.544,-3.392 2.624,-1.216 5.888,-1.216 3.136,0 5.696,1.216 2.56,1.152 4.352,3.264 1.792,2.112 2.752,5.12 1.024,2.944 1.024,6.528 v 1.728 h -24.256 v 1.6 q 0,2.56 0.704,4.736 0.768,2.112 2.112,3.648 1.408,1.536 3.392,2.432 1.984,0.832 4.48,0.832 7.168,0 9.92,-6.592 l 2.688,1.792 q -1.536,3.648 -4.864,5.824 -3.264,2.176 -7.936,2.176 z m -0.064,-31.232 q -2.368,0 -4.288,0.896 -1.92,0.832 -3.328,2.368 -1.344,1.536 -2.112,3.712 -0.704,2.112 -0.704,4.672 v 0.32 h 20.288 v -0.512 q 0,-2.56 -0.704,-4.672 -0.704,-2.176 -2.048,-3.648 -1.28,-1.472 -3.136,-2.304 -1.792,-0.832 -3.968,-0.832 z"
         style="font-weight:300;font-size:64px"
         id="path263" />
      <path
         d="m 480.57706,91.112 q 1.6,0 2.304,0.832 0.768,0.832 0.768,2.112 v 0.832 q 0,2.688 -1.536,5.696 -1.472,3.072 -3.968,5.248 h -3.072 q 2.112,-2.176 3.2,-4.224 1.152,-2.048 1.536,-4.16 -1.28,-0.128 -1.792,-0.832 -0.512,-0.768 -0.512,-1.792 v -0.768 q 0,-1.28 0.704,-2.112 0.768,-0.832 2.368,-0.832 z"
         style="font-weight:300;font-size:64px"
         id="path265" />
      <path
         d="m 505.34484,64.232 h 3.84 l 10.048,28.864 h 0.256 l 9.984,-28.864 h 3.712 L 521.34484,97 h -4.16 z"
         style="font-weight:300;font-size:64px"
         id="path267" />
      <path
         d="m 551.68071,97.768 q -3.264,0 -5.952,-1.152 -2.624,-1.152 -4.544,-3.328 -1.856,-2.24 -2.88,-5.44 -0.96,-3.2 -0.96,-7.232 0,-4.032 0.96,-7.168 1.024,-3.2 2.88,-5.376 1.92,-2.24 4.544,-3.392 2.624,-1.216 5.888,-1.216 3.136,0 5.696,1.216 2.56,1.152 4.352,3.264 1.792,2.112 2.752,5.12 1.024,2.944 1.024,6.528 v 1.728 h -24.256 v 1.6 q 0,2.56 0.704,4.736 0.768,2.112 2.112,3.648 1.408,1.536 3.392,2.432 1.984,0.832 4.48,0.832 7.168,0 9.92,-6.592 l 2.688,1.792 q -1.536,3.648 -4.864,5.824 -3.264,2.176 -7.936,2.176 z m -0.064,-31.232 q -2.368,0 -4.288,0.896 -1.92,0.832 -3.328,2.368 -1.344,1.536 -2.112,3.712 -0.704,2.112 -0.704,4.672 v 0.32 h 20.288 v -0.512 q 0,-2.56 -0.704,-4.672 -0.704,-2.176 -2.048,-3.648 -1.28,-1.472 -3.136,-2.304 -1.792,-0.832 -3.968,-0.832 z"
         style="font-weight:300;font-size:64px"
         id="path269" />
      <path
         d="M 574.72066,97 V 64.232 h 3.648 v 5.888 h 0.256 q 0.96,-2.304 3.264,-4.096 2.304,-1.792 6.528,-1.792 h 2.176 v 3.584 h -2.88 q -4.096,0 -6.72,1.792 -2.624,1.792 -2.624,4.992 V 97 Z"
         style="font-weight:300;font-size:64px"
         id="path271" />
      <path
         d="m 618.04856,64.232 h 3.712 l -15.168,41.984 q -0.768,2.048 -1.856,2.816 -1.088,0.768 -3.584,0.768 h -3.712 v -3.2 h 5.504 l 3.136,-8.64 -12.16,-33.728 h 3.84 l 10.048,28.864 h 0.256 z"
         style="font-weight:300;font-size:64px"
         id="path273" />
      <path
         d="m 653.50432,97.768 q -4.288,0 -7.36,-1.6 -3.008,-1.6 -5.248,-4.672 l 2.688,-2.112 q 2.048,2.688 4.48,3.968 2.432,1.28 5.696,1.28 3.776,0 5.824,-1.6 2.048,-1.6 2.048,-4.608 0,-2.624 -1.6,-4.096 -1.536,-1.536 -5.12,-2.048 l -2.688,-0.448 q -2.24,-0.32 -4.096,-0.96 -1.856,-0.64 -3.2,-1.728 -1.28,-1.088 -2.048,-2.624 -0.704,-1.6 -0.704,-3.84 0,-2.304 0.832,-4.032 0.896,-1.728 2.368,-2.88 1.472,-1.152 3.52,-1.728 2.048,-0.576 4.416,-0.576 4.096,0 6.72,1.408 2.624,1.408 4.48,3.648 l -2.432,2.24 q -1.28,-1.536 -3.456,-2.816 -2.112,-1.344 -5.504,-1.344 -3.52,0 -5.504,1.536 -1.92,1.536 -1.92,4.352 0,2.88 1.728,4.16 1.792,1.28 5.312,1.856 l 2.624,0.384 q 4.992,0.768 7.36,3.008 2.432,2.176 2.432,6.144 0,4.608 -3.136,7.168 -3.072,2.56 -8.512,2.56 z"
         style="font-weight:300;font-size:64px"
         id="path275" />
      <path
         d="m 686.46428,97.768 q -3.264,0 -5.952,-1.152 -2.624,-1.152 -4.544,-3.328 -1.856,-2.24 -2.88,-5.44 -0.96,-3.2 -0.96,-7.232 0,-4.032 0.96,-7.168 1.024,-3.2 2.88,-5.376 1.92,-2.24 4.544,-3.392 2.624,-1.216 5.888,-1.216 3.136,0 5.696,1.216 2.56,1.152 4.352,3.264 1.792,2.112 2.752,5.12 1.024,2.944 1.024,6.528 v 1.728 h -24.256 v 1.6 q 0,2.56 0.704,4.736 0.768,2.112 2.112,3.648 1.408,1.536 3.392,2.432 1.984,0.832 4.48,0.832 7.168,0 9.92,-6.592 l 2.688,1.792 q -1.536,3.648 -4.864,5.824 -3.264,2.176 -7.936,2.176 z m -0.064,-31.232 q -2.368,0 -4.288,0.896 -1.92,0.832 -3.328,2.368 -1.344,1.536 -2.112,3.712 -0.704,2.112 -0.704,4.672 v 0.32 h 20.288 v -0.512 q 0,-2.56 -0.704,-4.672 -0.704,-2.176 -2.048,-3.648 -1.28,-1.472 -3.136,-2.304 -1.792,-0.832 -3.968,-0.832 z"
         style="font-weight:300;font-size:64px"
         id="path277" />
      <path
         d="m 721.02423,97.768 q -6.784,0 -10.496,-4.48 -3.648,-4.48 -3.648,-12.672 0,-8.192 3.648,-12.672 3.712,-4.48 10.496,-4.48 4.544,0 7.36,1.984 2.816,1.984 4.288,5.248 l -3.072,1.536 q -1.152,-2.688 -3.264,-4.096 -2.048,-1.408 -5.312,-1.408 -4.992,0 -7.616,3.2 -2.624,3.2 -2.624,8.384 v 4.608 q 0,5.184 2.624,8.384 2.624,3.2 7.616,3.2 3.392,0 5.696,-1.472 2.304,-1.472 3.712,-4.224 l 2.688,1.792 q -1.6,3.264 -4.608,5.248 -2.944,1.92 -7.488,1.92 z"
         style="font-weight:300;font-size:64px"
         id="path279" />
      <path
         d="m 761.72813,91.816 h -0.256 q -0.448,1.152 -1.216,2.24 -0.768,1.088 -1.92,1.92 -1.152,0.768 -2.752,1.28 -1.536,0.512 -3.648,0.512 -5.248,0 -8.192,-3.2 -2.944,-3.264 -2.944,-9.28 V 64.232 h 3.648 v 20.352 q 0,5.056 2.176,7.488 2.176,2.432 6.272,2.432 1.728,0 3.264,-0.448 1.6,-0.448 2.816,-1.344 1.28,-0.896 1.984,-2.24 0.768,-1.408 0.768,-3.264 V 64.232 h 3.648 V 97 h -3.648 z"
         style="font-weight:300;font-size:64px"
         id="path281" />
      <path
         d="M 777.28011,97 V 64.232 h 3.648 v 5.888 h 0.256 q 0.96,-2.304 3.264,-4.096 2.304,-1.792 6.528,-1.792 h 2.176 v 3.584 h -2.88 q -4.096,0 -6.72,1.792 -2.624,1.792 -2.624,4.992 V 97 Z"
         style="font-weight:300;font-size:64px"
         id="path283" />
      <path
         d="m 811.64799,97.768 q -3.264,0 -5.952,-1.152 -2.624,-1.152 -4.544,-3.328 -1.856,-2.24 -2.88,-5.44 -0.96,-3.2 -0.96,-7.232 0,-4.032 0.96,-7.168 1.024,-3.2 2.88,-5.376 1.92,-2.24 4.544,-3.392 2.624,-1.216 5.888,-1.216 3.136,0 5.696,1.216 2.56,1.152 4.352,3.264 1.792,2.112 2.752,5.12 1.024,2.944 1.024,6.528 v 1.728 h -24.256 v 1.6 q 0,2.56 0.704,4.736 0.768,2.112 2.112,3.648 1.408,1.536 3.392,2.432 1.984,0.832 4.48,0.832 7.168,0 9.92,-6.592 l 2.688,1.792 q -1.536,3.648 -4.864,5.824 -3.264,2.176 -7.936,2.176 z m -0.064,-31.232 q -2.368,0 -4.288,0.896 -1.92,0.832 -3.328,2.368 -1.344,1.536 -2.112,3.712 -0.704,2.112 -0.704,4.672 v 0.32 h 20.288 v -0.512 q 0,-2.56 -0.704,-4.672 -0.704,-2.176 -2.048,-3.648 -1.28,-1.472 -3.136,-2.304 -1.792,-0.832 -3.968,-0.832 z"
         style="font-weight:300;font-size:64px"
         id="path285" />
      <path
         d="m 835.64787,97.576 q -1.6,0 -2.368,-0.768 -0.704,-0.832 -0.704,-2.112 v -0.704 q 0,-1.28 0.704,-2.048 0.768,-0.832 2.368,-0.832 1.536,0 2.304,0.832 0.768,0.768 0.768,2.048 v 0.704 q 0,1.28 -0.768,2.112 -0.768,0.768 -2.304,0.768 z"
         style="font-weight:300;font-size:64px"
         id="path287" />
    </g>
    <g
       clip-path="url(#clip1)"
       id="g196">
      <g
         clip-path="url(#clip2)"
         id="g194">
        <g
           clip-path="url(#clip3)"
           id="g192">
          <path
             d="M233.781 156.296C233.781 151.464 237.699 147.546 242.531 147.546 247.364 147.546 251.281 151.464 251.281 156.296 251.281 161.129 247.364 165.046 242.531 165.046 237.699 165.046 233.781 161.129 233.781 156.296ZM178 252.513 178 242.669 187.844 242.669C190.864 242.669 193.312 240.221 193.312 237.2L193.312 227.357 203.156 227.357C206.177 227.357 208.625 224.909 208.625 221.888 208.625 218.868 206.177 216.419 203.156 216.419L187.844 216.419C184.823 216.419 182.375 218.868 182.375 221.888L182.375 231.732 172.531 231.732C169.511 231.732 167.062 234.18 167.062 237.201L167.062 247.044 153.938 247.044 153.938 230.716 202.432 182.221C204.214 180.439 204.548 177.671 203.241 175.517 201.346 172.393 199.605 169.055 198.067 165.595 196.263 161.537 197.182 156.689 200.355 153.532L221.83 132.157C224.895 129.106 229.489 128.133 233.532 129.678 239.882 132.105 249.033 136.572 256.571 144.075 264.155 151.623 268.772 160.909 271.309 167.371 272.893 171.403 271.93 175.985 268.858 179.043L247.123 200.676C243.959 203.826 239.234 204.746 235.088 203.022 231.668 201.599 228.356 199.91 225.244 198 222.67 196.42 219.302 197.226 217.723 199.8 216.143 202.374 216.948 205.741 219.523 207.322 223.119 209.529 226.943 211.48 230.887 213.12 239.129 216.549 248.53 214.706 254.839 208.428L276.573 186.796C282.738 180.66 284.668 171.466 281.49 163.373 278.569 155.938 273.214 145.208 264.286 136.323 255.39 127.468 244.775 122.266 237.436 119.461 229.38 116.382 220.225 118.323 214.113 124.405L192.638 145.78C186.272 152.116 184.438 161.865 188.072 170.039 189.199 172.574 190.425 175.054 191.735 177.45L144.602 224.583C143.576 225.609 143 227 143 228.451L143 252.513C143 255.534 145.448 257.982 148.469 257.982L172.531 257.982C175.552 257.982 178 255.534 178 252.513Z"
             fill="url(#fill4)"
             id="path190" />
        </g>
      </g>
    </g>
  </g>
</svg>
